<svg xmlns="http://www.w3.org/2000/svg" viewBox="0 0 754.94 630.61"><defs><style>.cls-1{fill:#fff;}</style></defs><g id="Layer_2" data-name="Layer 2"><g id="Layer_1-2" data-name="Layer 1"><path class="cls-1" d="M0,315.75C0,135.07,162.8,0,377.47,0,593,0,754.94,135.07,754.94,315.75c0,179.79-161.9,314.86-377.47,314.86C162.8,630.61,0,495.54,0,315.75Zm676.23,0c0-141.33-123.44-241.51-298.76-241.51S78.71,174.42,78.71,315.75,202.15,556.37,377.47,556.37,676.23,457.08,676.23,315.75Zm-494.65-.89c0-89.45,78.71-161.9,219.15-161.9a377.83,377.83,0,0,1,149.38,30.41V290.71c-24.16-12.53-57.25-25-105.55-25-56.35,0-86.77,22.36-86.77,51,0,27.73,31.31,51,86.77,51,44.72,0,81.39-11.63,105.55-25v99.29c-42.94,23.25-90.35,36.67-156.54,36.67C265.66,478.55,181.58,406.1,181.58,314.86Z"/></g></g></svg>