<?xml version="1.0" encoding="utf-8"?>
<!-- Generator: Adobe Illustrator 26.1.0, SVG Export Plug-In . SVG Version: 6.00 Build 0)  -->
<svg version="1.1" id="Layer_1" xmlns="http://www.w3.org/2000/svg" xmlns:xlink="http://www.w3.org/1999/xlink" x="0px" y="0px"
	 viewBox="0 0 13 10" style="enable-background:new 0 0 13 10;" xml:space="preserve">
<style type="text/css">
	.st0{fill:#231F20;}
	.st1{clip-path:url(#SVGID_00000103244361609147971580000010898205693004886454_);fill:#231F20;}
	
		.st2{clip-path:url(#SVGID_00000103244361609147971580000010898205693004886454_);fill:none;stroke:#231F20;stroke-width:0.5;stroke-miterlimit:1.253;}
</style>
<path class="st0" d="M9.7,5l0.9,2.4H8.9L9.7,5z M9.1,3.5L6.6,10h1.4l0.5-1.5h2.6l0.6,1.5H13v0l-2.6-6.4H9.1z"/>
<g>
	<defs>
		<rect id="SVGID_1_" width="13" height="10"/>
	</defs>
	<clipPath id="SVGID_00000121260371482535874730000017520846653996441995_">
		<use xlink:href="#SVGID_1_"  style="overflow:visible;"/>
	</clipPath>
	<path style="clip-path:url(#SVGID_00000121260371482535874730000017520846653996441995_);fill:#231F20;" d="M3.1,3.8
		C2.5,3.2,2.2,2.6,2.1,1.9H4C3.9,2.6,3.6,3.3,3.1,3.8 M3.6,4.2c0.6-0.6,1-1.4,1.1-2.3h1.2V1.3H3.4v-1H2.8v1H0.4v0.6h1.1
		C1.6,2.8,2,3.6,2.6,4.3C2,4.8,1.2,5.2,0.2,5.4l0.4,0.5c1-0.3,1.8-0.7,2.5-1.3c0.6,0.5,1.5,0.9,2.5,1.2L6,5.4
		C5.1,5.2,4.2,4.8,3.6,4.2"/>
	
		<path style="clip-path:url(#SVGID_00000121260371482535874730000017520846653996441995_);fill:none;stroke:#231F20;stroke-width:0.5;stroke-miterlimit:1.253;" d="
		M3.1,3.8C2.5,3.2,2.2,2.6,2.1,1.9H4C3.9,2.6,3.6,3.3,3.1,3.8z M3.6,4.2c0.6-0.6,1-1.4,1.1-2.3h1.2V1.3H3.4v-1H2.8v1H0.4v0.6h1.1
		C1.6,2.8,2,3.6,2.6,4.3C2,4.8,1.2,5.2,0.2,5.4l0.4,0.5c1-0.3,1.8-0.7,2.5-1.3c0.6,0.5,1.5,0.9,2.5,1.2L6,5.4
		C5.1,5.2,4.2,4.8,3.6,4.2z"/>
</g>
</svg>
